<svg width="30" height="30" viewBox="0 0 30 30" fill="none" xmlns="http://www.w3.org/2000/svg">
<path d="M25.3786 2.42847H3.76429C3.41003 2.42847 3.07029 2.56919 2.8198 2.81969C2.5693 3.07018 2.42857 3.40993 2.42857 3.76418V25.3785C2.42857 25.7327 2.5693 26.0725 2.8198 26.323C3.07029 26.5735 3.41003 26.7142 3.76429 26.7142H15.3971V17.3035H12.24V13.6606H15.3971V10.9285C15.3317 10.287 15.4075 9.63905 15.619 9.02998C15.8306 8.4209 16.1728 7.86549 16.6217 7.40268C17.0706 6.93987 17.6154 6.58089 18.2177 6.3509C18.8201 6.12091 19.4654 6.02549 20.1086 6.07132C21.0537 6.0648 21.9984 6.11345 22.9379 6.21704V9.49561H21.0071C19.4771 9.49561 19.1857 10.2242 19.1857 11.2806V13.6242H22.8286L22.355 17.267H19.1857V26.7142H25.3786C25.554 26.7142 25.7277 26.6796 25.8897 26.6125C26.0518 26.5454 26.199 26.447 26.3231 26.323C26.4471 26.1989 26.5455 26.0517 26.6126 25.8896C26.6797 25.7276 26.7143 25.5539 26.7143 25.3785V3.76418C26.7143 3.58877 26.6797 3.41508 26.6126 3.25303C26.5455 3.09097 26.4471 2.94372 26.3231 2.81969C26.199 2.69566 26.0518 2.59727 25.8897 2.53014C25.7277 2.46302 25.554 2.42847 25.3786 2.42847Z" fill="#FFFEFE"/>
</svg>
