<svg width="25" height="25" viewBox="0 0 25 25" fill="none" xmlns="http://www.w3.org/2000/svg">
<g clip-path="url(#clip0_2_26)">
<path d="M12.0591 8.03931C10.993 8.03931 9.9706 8.46281 9.21676 9.21665C8.46292 9.97049 8.03941 10.9929 8.03941 12.059C8.03941 13.1251 8.46292 14.1475 9.21676 14.9014C9.9706 15.6552 10.993 16.0787 12.0591 16.0787C13.1252 16.0787 14.1476 15.6552 14.9015 14.9014C15.6553 14.1475 16.0788 13.1251 16.0788 12.059C16.0788 10.9929 15.6553 9.97049 14.9015 9.21665C14.1476 8.46281 13.1252 8.03931 12.0591 8.03931Z" fill="#FFFEFE"/>
<path fill-rule="evenodd" clip-rule="evenodd" d="M7.23547 0C5.3165 0 3.47613 0.762306 2.11922 2.11922C0.762306 3.47613 0 5.3165 0 7.23547L0 16.8828C0 18.8017 0.762306 20.6421 2.11922 21.999C3.47613 23.3559 5.3165 24.1182 7.23547 24.1182H16.8828C18.8017 24.1182 20.6421 23.3559 21.999 21.999C23.3559 20.6421 24.1182 18.8017 24.1182 16.8828V7.23547C24.1182 5.3165 23.3559 3.47613 21.999 2.11922C20.6421 0.762306 18.8017 0 16.8828 0L7.23547 0ZM6.43153 12.0591C6.43153 10.5666 7.02443 9.13519 8.07981 8.07981C9.13519 7.02443 10.5666 6.43153 12.0591 6.43153C13.5516 6.43153 14.983 7.02443 16.0384 8.07981C17.0938 9.13519 17.6867 10.5666 17.6867 12.0591C17.6867 13.5516 17.0938 14.983 16.0384 16.0384C14.983 17.0938 13.5516 17.6867 12.0591 17.6867C10.5666 17.6867 9.13519 17.0938 8.07981 16.0384C7.02443 14.983 6.43153 13.5516 6.43153 12.0591ZM17.6867 6.43153H19.2946V4.82365H17.6867V6.43153Z" fill="#FFFEFE"/>
</g>
<defs>
<clipPath id="clip0_2_26">
<rect width="24.1182" height="24.1182" fill="white"/>
</clipPath>
</defs>
</svg>
