<svg width="105" height="20" viewBox="0 0 105 20" fill="none" xmlns="http://www.w3.org/2000/svg">
<path d="M6.11199 19.296C5.29066 19.296 4.52266 19.2213 3.80799 19.072C3.10399 18.9333 2.51199 18.7467 2.03199 18.512C1.55199 18.2773 1.15733 18.0533 0.847994 17.84C0.549327 17.6267 0.29866 17.4133 0.0959937 17.2L0.495994 13.312C0.933327 13.8987 1.51999 14.4107 2.25599 14.848C2.99199 15.2747 3.78666 15.488 4.63999 15.488C5.49333 15.488 6.10666 15.3973 6.47999 15.216C6.86399 15.0347 7.05599 14.704 7.05599 14.224C7.05599 13.712 6.83733 13.2747 6.39999 12.912C5.97333 12.5493 5.23199 12.112 4.17599 11.6C3.79199 11.408 3.46666 11.2373 3.19999 11.088C2.93333 10.928 2.57599 10.672 2.12799 10.32C1.69066 9.95733 1.33333 9.584 1.05599 9.2C0.77866 8.80533 0.533327 8.304 0.319994 7.696C0.10666 7.07733 -6.34789e-06 6.416 -6.34789e-06 5.712C-6.34789e-06 1.904 2.14933 0 6.44799 0C7.13066 0 7.77066 0.0746665 8.36799 0.224C8.97599 0.362666 9.45066 0.517332 9.79199 0.687999C10.1333 0.858665 10.4427 1.06133 10.72 1.296C11.008 1.52 11.1893 1.68 11.264 1.776C11.3387 1.86133 11.392 1.93067 11.424 1.984L10.624 5.072C10.208 4.58133 9.68533 4.21867 9.05599 3.984C8.43733 3.73867 7.84533 3.616 7.27999 3.616C5.91466 3.616 5.23199 4.04267 5.23199 4.896C5.23199 5.12 5.27466 5.32267 5.35999 5.504C5.44533 5.68533 5.58399 5.85067 5.77599 6C5.96799 6.14933 6.14399 6.27733 6.30399 6.384C6.47466 6.49067 6.70399 6.624 6.99199 6.784C7.29066 6.93333 7.51466 7.056 7.66399 7.152C9.22133 7.81333 10.3627 8.59733 11.088 9.504C11.824 10.4107 12.192 11.5147 12.192 12.816C12.192 14.928 11.6693 16.5387 10.624 17.648C9.58933 18.7467 8.08533 19.296 6.11199 19.296ZM23.0874 18.96L22.3674 15.968H17.8234L17.2154 18.96H12.5114L17.3914 1.504L17.0074 0.207999H23.6154L28.9594 18.96H23.0874ZM19.8874 5.712L18.4794 12.704H21.5834L19.8874 5.712ZM33.6545 18.96H28.8385L30.3265 0.207999H37.8305L39.2385 6.496L39.8785 9.68L40.4865 6.512L41.7345 0.207999H48.4225L49.7985 18.96H44.8225L44.0065 7.936L43.8145 3.872L41.3665 17.088H37.1905L34.2465 3.872L34.1505 7.936L33.6545 18.96ZM58.4479 19.296C57.3492 19.296 56.3732 19.1893 55.5199 18.976C54.6772 18.7627 53.9839 18.4747 53.4399 18.112C52.9065 17.7493 52.4639 17.3013 52.1119 16.768C51.7705 16.224 51.5305 15.6533 51.3919 15.056C51.2532 14.4587 51.1839 13.7973 51.1839 13.072V0.207999H56.8799V12.352C56.8799 13.7067 57.0185 14.64 57.2959 15.152C57.5839 15.6533 57.9999 15.904 58.5439 15.904C58.8425 15.904 59.1039 15.856 59.3279 15.76C59.5519 15.6533 59.7599 15.4773 59.9519 15.232C60.1439 14.976 60.2879 14.6133 60.3839 14.144C60.4905 13.664 60.5439 13.0827 60.5439 12.4V0.207999H65.5999V13.168C65.5999 13.8827 65.5359 14.528 65.4079 15.104C65.2905 15.68 65.0665 16.24 64.7359 16.784C64.4159 17.3173 63.9892 17.7653 63.4559 18.128C62.9332 18.48 62.2452 18.7627 61.3919 18.976C60.5492 19.1893 59.5679 19.296 58.4479 19.296ZM73.0107 12.72V18.96H67.6987V0.207999H69.8107C70.3227 0.207999 71.0854 0.186666 72.0987 0.144C73.1121 0.0906663 73.9494 0.0639997 74.6107 0.0639997C76.9147 0.0639997 78.6321 0.570666 79.7627 1.584C80.9041 2.59733 81.4747 4.14933 81.4747 6.24C81.4747 7.47733 81.2027 8.576 80.6587 9.536C80.1254 10.496 79.4161 11.2587 78.5307 11.824C79.0107 11.9413 79.4214 12.2133 79.7627 12.64C80.1147 13.0667 80.3867 13.5733 80.5787 14.16C80.7707 14.736 80.9361 15.3227 81.0747 15.92C81.2241 16.5067 81.3894 17.088 81.5707 17.664C81.7627 18.24 81.9707 18.672 82.1947 18.96H76.2907C76.1734 18.8107 76.0827 18.3947 76.0187 17.712C75.9547 17.0187 75.8641 16.192 75.7467 15.232C75.6401 14.2613 75.4854 13.4507 75.2827 12.8C75.2614 12.8 75.2347 12.8 75.2027 12.8C75.0001 12.8 74.7814 12.8 74.5467 12.8C74.3227 12.7893 74.1254 12.7787 73.9547 12.768C73.7841 12.7573 73.6027 12.7467 73.4107 12.736C73.2294 12.7253 73.0961 12.72 73.0107 12.72ZM73.0107 9.744H73.5227C73.7894 9.744 74.0134 9.73333 74.1947 9.712C74.3761 9.69067 74.5734 9.65333 74.7867 9.6C75.0107 9.536 75.1921 9.44 75.3307 9.312C75.4801 9.184 75.6187 9.01867 75.7467 8.816C75.8747 8.61333 75.9707 8.352 76.0347 8.032C76.0987 7.712 76.1307 7.33867 76.1307 6.912V5.648C76.1307 4.72 75.8854 4.07467 75.3947 3.712C74.9147 3.33867 74.2214 3.152 73.3147 3.152H73.0107V9.744ZM92.4155 18.96L91.6955 15.968H87.1515L86.5435 18.96H81.8395L86.7195 1.504L86.3355 0.207999H92.9435L98.2875 18.96H92.4155ZM89.2155 5.712L87.8075 12.704H90.9115L89.2155 5.712ZM98.9666 18.96V0.207999H104.423V18.96H98.9666Z" fill="black"/>
</svg>
